<mxfile host="Electron" modified="2023-09-18T13:38:14.009Z" agent="Mozilla/5.0 (X11; Linux x86_64) AppleWebKit/537.36 (KHTML, like Gecko) draw.io/21.6.8 Chrome/114.0.5735.289 Electron/25.5.0 Safari/537.36" etag="OC_KCf2r4cEWEeFgI_o7" version="21.6.8" type="device">
  <diagram name="Page-1" id="5f0bae14-7c28-e335-631c-24af17079c00">
    <mxGraphModel dx="880" dy="559" grid="1" gridSize="10" guides="1" tooltips="1" connect="1" arrows="1" fold="1" page="1" pageScale="1" pageWidth="1100" pageHeight="850" background="none" math="0" shadow="0">
      <root>
        <mxCell id="0" />
        <mxCell id="1" parent="0" />
        <mxCell id="39150e848f15840c-1" value="Cliente" style="verticalAlign=top;align=left;spacingTop=8;spacingLeft=2;spacingRight=12;shape=cube;size=10;direction=south;fontStyle=4;html=1;rounded=0;shadow=0;comic=0;labelBackgroundColor=none;strokeWidth=1;fontFamily=Verdana;fontSize=12" parent="1" vertex="1">
          <mxGeometry x="220" y="120" width="230" height="120" as="geometry" />
        </mxCell>
        <mxCell id="39150e848f15840c-2" value="Servidor" style="verticalAlign=top;align=left;spacingTop=8;spacingLeft=2;spacingRight=12;shape=cube;size=10;direction=south;fontStyle=4;html=1;rounded=0;shadow=0;comic=0;labelBackgroundColor=none;strokeWidth=1;fontFamily=Verdana;fontSize=12" parent="1" vertex="1">
          <mxGeometry x="530" y="120" width="330" height="120" as="geometry" />
        </mxCell>
        <mxCell id="oYIvY4bgqSK7Rj_jATKt-7" style="edgeStyle=orthogonalEdgeStyle;rounded=0;orthogonalLoop=1;jettySize=auto;html=1;exitX=0.5;exitY=1;exitDx=0;exitDy=0;endSize=15;entryX=0.25;entryY=1;entryDx=0;entryDy=0;" edge="1" parent="1" source="39150e848f15840c-4" target="oYIvY4bgqSK7Rj_jATKt-1">
          <mxGeometry relative="1" as="geometry">
            <mxPoint x="580" y="270" as="targetPoint" />
            <Array as="points">
              <mxPoint x="355" y="280" />
              <mxPoint x="565" y="280" />
            </Array>
          </mxGeometry>
        </mxCell>
        <mxCell id="oYIvY4bgqSK7Rj_jATKt-8" value="Remote Call" style="edgeLabel;html=1;align=center;verticalAlign=middle;resizable=0;points=[];" vertex="1" connectable="0" parent="oYIvY4bgqSK7Rj_jATKt-7">
          <mxGeometry x="-0.0359" relative="1" as="geometry">
            <mxPoint as="offset" />
          </mxGeometry>
        </mxCell>
        <mxCell id="39150e848f15840c-4" value="«interface»&lt;br&gt;&lt;b&gt;Calculadora&lt;/b&gt;" style="html=1;rounded=0;shadow=0;comic=0;labelBackgroundColor=none;strokeWidth=1;fontFamily=Verdana;fontSize=12;align=center;" parent="1" vertex="1">
          <mxGeometry x="300" y="155" width="110" height="50" as="geometry" />
        </mxCell>
        <mxCell id="39150e848f15840c-8" value="«interface»&lt;br&gt;&lt;b&gt;Calculadora&lt;/b&gt;" style="html=1;rounded=0;shadow=0;comic=0;labelBackgroundColor=none;strokeWidth=1;fontFamily=Verdana;fontSize=12;align=center;" parent="1" vertex="1">
          <mxGeometry x="730" y="152" width="100" height="55" as="geometry" />
        </mxCell>
        <mxCell id="oYIvY4bgqSK7Rj_jATKt-3" style="edgeStyle=orthogonalEdgeStyle;rounded=0;orthogonalLoop=1;jettySize=auto;html=1;exitX=1;exitY=0.5;exitDx=0;exitDy=0;entryX=0;entryY=0.5;entryDx=0;entryDy=0;dashed=1;endArrow=open;endFill=0;endSize=15;" edge="1" parent="1" source="oYIvY4bgqSK7Rj_jATKt-1" target="39150e848f15840c-8">
          <mxGeometry relative="1" as="geometry" />
        </mxCell>
        <mxCell id="oYIvY4bgqSK7Rj_jATKt-1" value="&amp;lt;&amp;lt;Object&amp;gt;&amp;gt;&lt;br&gt;&lt;b&gt;Calculadora&lt;/b&gt;" style="rounded=0;whiteSpace=wrap;html=1;" vertex="1" parent="1">
          <mxGeometry x="540" y="155" width="100" height="50" as="geometry" />
        </mxCell>
      </root>
    </mxGraphModel>
  </diagram>
</mxfile>
